<svg width="35" height="35" viewBox="0 0 35 35" fill="none" xmlns="http://www.w3.org/2000/svg">
<g id="mynaui:desktop">
<path id="Vector" opacity="0.51" d="M13.125 29.1666H17.5M17.5 29.1666H21.875M17.5 29.1666V24.7916M17.5 24.7916H27.7083C28.4819 24.7916 29.2237 24.4843 29.7707 23.9373C30.3177 23.3903 30.625 22.6485 30.625 21.8749V8.74992C30.625 7.97637 30.3177 7.2345 29.7707 6.68752C29.2237 6.14054 28.4819 5.83325 27.7083 5.83325H7.29167C6.51812 5.83325 5.77625 6.14054 5.22927 6.68752C4.68229 7.2345 4.375 7.97637 4.375 8.74992V21.8749C4.375 22.6485 4.68229 23.3903 5.22927 23.9373C5.77625 24.4843 6.51812 24.7916 7.29167 24.7916H17.5Z" stroke="white" stroke-width="1.5" stroke-linecap="round" stroke-linejoin="round"/>
</g>
</svg>
