<svg width="31" height="35" viewBox="0 0 31 35" fill="none" xmlns="http://www.w3.org/2000/svg">
<g id="circum:mobile-1">
<path id="Vector" opacity="0.51" d="M12.9167 27.6107H18.0833C18.2546 27.6107 18.4189 27.5339 18.54 27.3971C18.6611 27.2604 18.7292 27.0749 18.7292 26.8815C18.7292 26.6881 18.6611 26.5027 18.54 26.3659C18.4189 26.2292 18.2546 26.1523 18.0833 26.1523H12.9167C12.7454 26.1523 12.5811 26.2292 12.46 26.3659C12.3389 26.5027 12.2708 26.6881 12.2708 26.8815C12.2708 27.0749 12.3389 27.2604 12.46 27.3971C12.5811 27.5339 12.7454 27.6107 12.9167 27.6107Z" fill="white"/>
<path id="Vector_2" opacity="0.51" d="M21.6057 31.9915H9.39428C8.58391 31.9369 7.8254 31.5232 7.2838 30.8404C6.74219 30.1577 6.4613 29.261 6.50224 28.3456V6.65438C6.4613 5.73897 6.74219 4.84235 7.2838 4.15958C7.8254 3.4768 8.58391 3.06313 9.39428 3.00854H21.6057C22.4161 3.06313 23.1746 3.4768 23.7162 4.15958C24.2578 4.84235 24.5387 5.73897 24.4977 6.65438V28.3456C24.5387 29.261 24.2578 30.1577 23.7162 30.8404C23.1746 31.5232 22.4161 31.9369 21.6057 31.9915ZM9.39428 4.46688C8.92707 4.5226 8.49782 4.78286 8.19862 5.19182C7.89943 5.60078 7.75413 6.12585 7.79391 6.65438V28.3456C7.75413 28.8742 7.89943 29.3992 8.19862 29.8082C8.49782 30.2172 8.92707 30.4774 9.39428 30.5331H21.6057C22.0729 30.4774 22.5022 30.2172 22.8014 29.8082C23.1006 29.3992 23.2459 28.8742 23.2061 28.3456V6.65438C23.2459 6.12585 23.1006 5.60078 22.8014 5.19182C22.5022 4.78286 22.0729 4.5226 21.6057 4.46688H9.39428Z" fill="white"/>
</g>
</svg>
