<svg width="27" height="27" viewBox="0 0 27 27" fill="none" xmlns="http://www.w3.org/2000/svg">
<g id="logos:chrome" clip-path="url(#clip0_1_219)">
<path id="Vector" d="M13.5003 21.0112C17.6489 21.0112 21.0119 17.648 21.0119 13.4993C21.0119 9.35074 17.6489 5.98755 13.5003 5.98755C9.35171 5.98755 5.98853 9.35074 5.98853 13.4993C5.98853 17.648 9.35161 21.0112 13.5002 21.0112" fill="white"/>
<path id="Vector_2" d="M3.78529 9.80837C3.2249 8.8377 2.56621 7.81898 1.80923 6.7522C0.624148 8.80434 0.00022336 11.1323 0.000183107 13.5021C0.000142854 15.8718 0.623989 18.1998 1.809 20.252C2.99401 22.3042 4.69841 24.0082 6.75085 25.1928C8.80329 26.3774 11.1314 27.0007 13.5012 27.0002C14.7437 25.2575 15.5873 24.001 16.032 23.2307C16.8862 21.7512 17.9909 19.633 19.3461 16.8761V16.8746C18.7541 17.9011 17.9021 18.7537 16.876 19.3465C15.8499 19.9393 14.6858 20.2515 13.5007 20.2517C12.3156 20.2519 11.1514 19.9401 10.1251 19.3475C9.0988 18.755 8.2466 17.9027 7.6542 16.8764C5.81356 13.4436 4.52392 11.0875 3.78529 9.80837Z" fill="#229342"/>
<path id="Vector_3" d="M13.5008 26.9995C15.2737 26.9998 17.0293 26.6508 18.6673 25.9725C20.3053 25.2942 21.7935 24.2998 23.0471 23.0461C24.3007 21.7925 25.295 20.3041 25.9733 18.6661C26.6515 17.0281 27.0004 15.2725 27 13.4996C26.9995 11.1298 26.3752 8.80195 25.1898 6.74993C22.6324 6.49786 20.745 6.37183 19.5276 6.37183C18.1473 6.37183 16.138 6.49786 13.4999 6.74993L13.4984 6.75099C14.6835 6.7504 15.8479 7.06188 16.8744 7.65409C17.9009 8.24631 18.7533 9.09838 19.346 10.1246C19.9387 11.1508 20.2508 12.3151 20.2508 13.5002C20.2507 14.6853 19.9387 15.8495 19.3459 16.8757L13.5008 26.9995Z" fill="#FBC116"/>
<path id="Vector_4" d="M13.5003 18.8449C16.4517 18.8449 18.8443 16.4524 18.8443 13.5008C18.8443 10.5493 16.4517 8.15674 13.5002 8.15674C10.5489 8.15674 8.15619 10.5494 8.15619 13.5008C8.15619 16.4523 10.5489 18.8449 13.5003 18.8449Z" fill="#1A73E8"/>
<path id="Vector_5" d="M13.5003 6.75046H25.1902C24.0056 4.69799 22.3015 2.99357 20.2493 1.80859C18.1971 0.623611 15.8691 -0.000160316 13.4993 3.09064e-08C11.1295 0.000160378 8.80156 0.624246 6.7495 1.8095C4.69743 2.99476 2.9936 4.69941 1.80933 6.75204L7.6543 16.876L7.65588 16.8768C7.06289 15.8508 6.75051 14.6867 6.75016 13.5016C6.74981 12.3165 7.0615 11.1522 7.6539 10.1258C8.24629 9.09944 9.09849 8.24712 10.1248 7.65458C11.1511 7.06204 12.3153 6.75018 13.5004 6.75035L13.5003 6.75046Z" fill="#E33B2E"/>
</g>
<defs>
<clipPath id="clip0_1_219">
<rect width="27" height="27" fill="white"/>
</clipPath>
</defs>
</svg>
