<svg width="19" height="20" viewBox="0 0 19 20" fill="none" xmlns="http://www.w3.org/2000/svg">
<g id="Group 36">
<path id="Vector" d="M13.2133 2.08876L15.2162 2.11159C15.7474 2.11765 16.254 2.37024 16.6246 2.81382C16.9951 3.25739 17.1992 3.8556 17.192 4.47686L17.0507 16.6575C17.0614 17.8865 16.8255 17.8722 16.4448 18.3072C16.0641 18.7422 15.5518 18.9832 15.0205 18.9771L3.00292 18.8402C2.47171 18.8341 1.96511 18.5815 1.59459 18.138C1.22406 17.6944 1.01995 17.0962 1.02716 16.4749L1.16849 4.29424C1.1757 3.67299 1.39364 3.07958 1.77436 2.64457C2.15508 2.20956 2.6674 1.96858 3.19861 1.97463L4.37481 1.98592" stroke="white" stroke-width="2" stroke-linecap="round" stroke-linejoin="round"/>
<g id="Group 6">
<path id="Vector_2" d="M5.60173 12.2085L8.98521 15.4329L12.3501 12.1645M8.94981 3.09648L8.98335 14.7836" stroke="white" stroke-width="2" stroke-linecap="round" stroke-linejoin="round"/>
</g>
</g>
</svg>
