<svg width="24" height="24" viewBox="0 0 24 24" fill="none" xmlns="http://www.w3.org/2000/svg">
<g id="mi:notification">
<path id="Vector" d="M10.1459 2.24792C10.2953 1.87864 10.5516 1.56238 10.8819 1.3397C11.2122 1.11701 11.6015 0.998047 11.9999 0.998047C12.3983 0.998047 12.7876 1.11701 13.1179 1.3397C13.4482 1.56238 13.7045 1.87864 13.8539 2.24792C15.3329 2.65416 16.6376 3.53491 17.5673 4.75479C18.497 5.97467 19.0003 7.46614 18.9999 8.99992V13.6969L20.8319 16.4449C20.9324 16.5955 20.9901 16.7706 20.9989 16.9514C21.0077 17.1322 20.9672 17.3121 20.8818 17.4717C20.7964 17.6313 20.6692 17.7648 20.5139 17.8578C20.3586 17.9508 20.181 18 19.9999 17.9999H15.4649C15.3445 18.833 14.928 19.5949 14.2916 20.1459C13.6552 20.6969 12.8417 21.0001 11.9999 21.0001C11.1581 21.0001 10.3446 20.6969 9.7082 20.1459C9.07184 19.5949 8.65531 18.833 8.53491 17.9999H3.99991C3.81886 18 3.64121 17.9508 3.4859 17.8578C3.33058 17.7648 3.20344 17.6313 3.11803 17.4717C3.03262 17.3121 2.99215 17.1322 3.00093 16.9514C3.00972 16.7706 3.06743 16.5955 3.16791 16.4449L4.99991 13.6969V8.99992C4.99991 5.77592 7.17991 3.05992 10.1459 2.24792ZM10.5859 17.9999C10.6892 18.2926 10.8807 18.546 11.134 18.7252C11.3874 18.9045 11.6901 19.0007 12.0004 19.0007C12.3107 19.0007 12.6134 18.9045 12.8668 18.7252C13.1201 18.546 13.3116 18.2926 13.4149 17.9999H10.5859ZM11.9999 3.99992C10.6738 3.99992 9.40205 4.52671 8.46437 5.46439C7.52669 6.40207 6.99991 7.67384 6.99991 8.99992V13.9999C6.99995 14.1975 6.94149 14.3906 6.83191 14.5549L5.86891 15.9999H18.1299L17.1669 14.5549C17.0577 14.3905 16.9996 14.1974 16.9999 13.9999V8.99992C16.9999 7.67384 16.4731 6.40207 15.5354 5.46439C14.5978 4.52671 13.326 3.99992 11.9999 3.99992Z" fill="#F3F3F3"/>
</g>
</svg>
