<svg width="17" height="15" viewBox="0 0 17 15" fill="none" xmlns="http://www.w3.org/2000/svg">
<g id="mingcute:down-line" clip-path="url(#clip0_1_32)">
<g id="Group">
<path id="Vector" opacity="0.84" fill-rule="evenodd" clip-rule="evenodd" d="M9.00081 9.81697C8.86798 9.93414 8.68784 9.99996 8.50002 9.99996C8.31219 9.99996 8.13206 9.93414 7.99923 9.81697L3.99219 6.28134C3.92453 6.22369 3.87057 6.15472 3.83345 6.07847C3.79632 6.00222 3.77678 5.92021 3.77597 5.83722C3.77515 5.75423 3.79307 5.67193 3.82869 5.59512C3.8643 5.51831 3.9169 5.44853 3.98341 5.38985C4.04991 5.33116 4.129 5.28475 4.21605 5.25333C4.3031 5.2219 4.39638 5.20609 4.49043 5.20681C4.58448 5.20753 4.67743 5.22477 4.76385 5.25753C4.85027 5.29028 4.92843 5.3379 4.99377 5.39759L8.50002 8.49134L12.0063 5.39759C12.1399 5.28374 12.3188 5.22075 12.5045 5.22217C12.6902 5.22359 12.8679 5.28933 12.9992 5.40521C13.1306 5.52109 13.205 5.67784 13.2067 5.84172C13.2083 6.00559 13.1369 6.16347 13.0079 6.28134L9.00081 9.81697Z" fill="#F1F1F1"/>
</g>
</g>
<defs>
<clipPath id="clip0_1_32">
<rect width="17" height="15" fill="white"/>
</clipPath>
</defs>
</svg>
